<mxfile host="65bd71144e">
    <diagram id="W2HhLM_MVdg7PAFChpJF" name="Page-1">
        <mxGraphModel dx="547" dy="460" grid="1" gridSize="10" guides="1" tooltips="1" connect="1" arrows="1" fold="1" page="1" pageScale="1" pageWidth="850" pageHeight="1100" math="0" shadow="0">
            <root>
                <mxCell id="0"/>
                <mxCell id="1" parent="0"/>
                <mxCell id="2" value="Mike's Pasta" style="swimlane;" parent="1" vertex="1">
                    <mxGeometry x="240" y="160" width="470" height="270" as="geometry"/>
                </mxCell>
                <mxCell id="3" value="Menu&lt;br&gt;&lt;br&gt;Pasta Dishes&lt;br&gt;- Carbonara ($15)&lt;br&gt;- Spaghetti Bolognese ($10)&lt;br&gt;&lt;br&gt;Sides&lt;br&gt;- Garlic Bread ($2.50)&lt;br&gt;- Tiramisu ($5)" style="text;html=1;strokeColor=none;fillColor=none;align=left;verticalAlign=top;whiteSpace=wrap;rounded=0;" parent="2" vertex="1">
                    <mxGeometry x="300" y="30" width="170" height="150" as="geometry"/>
                </mxCell>
                <mxCell id="4" value="Select a Pasta dish" style="text;html=1;strokeColor=none;fillColor=none;align=center;verticalAlign=middle;whiteSpace=wrap;rounded=0;" vertex="1" parent="2">
                    <mxGeometry y="30" width="120" height="30" as="geometry"/>
                </mxCell>
                <mxCell id="5" value="Select a Side" style="text;html=1;strokeColor=none;fillColor=none;align=center;verticalAlign=middle;whiteSpace=wrap;rounded=0;" vertex="1" parent="2">
                    <mxGeometry y="90" width="90" height="30" as="geometry"/>
                </mxCell>
                <mxCell id="6" value="none" style="rounded=1;whiteSpace=wrap;html=1;" vertex="1" parent="2">
                    <mxGeometry x="10" y="120" width="120" height="20" as="geometry"/>
                </mxCell>
                <mxCell id="7" value="none" style="rounded=1;whiteSpace=wrap;html=1;" vertex="1" parent="2">
                    <mxGeometry x="10" y="60" width="120" height="20" as="geometry"/>
                </mxCell>
                <mxCell id="8" value="Items ordered: Spaghetti Bolognese Garlic Bread&lt;br&gt;&lt;br&gt;&lt;div style=&quot;text-align: left&quot;&gt;&lt;span&gt;Total cost: 14.13&lt;/span&gt;&lt;/div&gt;" style="text;html=1;strokeColor=none;fillColor=none;align=center;verticalAlign=middle;whiteSpace=wrap;rounded=0;" vertex="1" parent="2">
                    <mxGeometry y="170" width="290" height="100" as="geometry"/>
                </mxCell>
            </root>
        </mxGraphModel>
    </diagram>
</mxfile>